# xmcd
#
# Track frame offsets:
#	150
#	11380
#	22902
#	36395
#	52542
#	66622
#	82277
#	94560
#	105352
#	116362
#	129245
#	141720
#	151785
#	161162
#	170692
#
# Disc length: 2564 seconds
#
# Revision: 1
# Processed by: cddbd v1.5.1PL0 Copyright (c) Steve Scherf et al.
# Submitted via: EasyCDDAExtractor 7.0.5.4
#
DISCID=bd0a020f
DTITLE=Raymond Fairchild and The Maggie Valley Boys - Gospel Favorites
DYEAR=1976
DGENRE=gospel
TTITLE0=I'll Fly Away
TTITLE1=Will The circle Be Unbroken
TTITLE2=Sunny Side of Life
TTITLE3=Life's Railway to Heaven
TTITLE4=Power in The blood
TTITLE5=Golden Bells
TTITLE6=Battle Hymn of the Republic
TTITLE7=The Old Gospel Ship
TTITLE8=Somebody Touched Me
TTITLE9=Golden Slippers
TTITLE10=Down By The Riverside
TTITLE11=When The Saints Go Marching In
TTITLE12=Three Little Rosebuds
TTITLE13=Year of Jublo
TTITLE14=What A Friend We Have in Jesus
EXTD=
EXTT0=
EXTT1=
EXTT2=
EXTT3=
EXTT4=
EXTT5=
EXTT6=
EXTT7=
EXTT8=
EXTT9=
EXTT10=
EXTT11=
EXTT12=
EXTT13=
EXTT14=
PLAYORDER=
